# xmcd CD database file
#
# Track frame offsets:
#	150
#	15372
#	28840
#	48011
#	64623
#	78848
#	93957
#	107063
#	120621
#	132038
#	145961
#
# Disc length: 2157 seconds
#
# Revision: 0
# Processed by: cddbd v1.5.2PL0 Copyright (c) Steve Scherf et al.
# Submitted via: CDex 1.81
#
DISCID=80086b0b
DTITLE=Count Basie and His Orchestra - The Count Basie Story Volume 1
DYEAR=2011
DGENRE=Jazz
TTITLE0=Broadway
TTITLE1=Down For Double
TTITLE2=Lester Leaps In
TTITLE3=Topsy
TTITLE4=Jumpin' At The Woodside
TTITLE5=Taps Miller
TTITLE6=Shorty George
TTITLE7=Doggin' Around
TTITLE8=Avenue C
TTITLE9=Jive At Five
TTITLE10=Rock-A-Bye Basie
EXTD=YEAR: 2011
EXTT0=
EXTT1=
EXTT2=
EXTT3=
EXTT4=
EXTT5=
EXTT6=
EXTT7=
EXTT8=
EXTT9=
EXTT10=
PLAYORDER=
